<svg width="181" height="52" viewBox="0 0 181 52" fill="none" xmlns="http://www.w3.org/2000/svg">
<path d="M78.9727 31.2578V34H69.8906V31.2578H78.9727ZM71.0391 16.9375V34H67.5234V16.9375H71.0391ZM77.7891 23.8867V26.5586H69.8906V23.8867H77.7891ZM78.9609 16.9375V19.6914H69.8906V16.9375H78.9609ZM97.9688 31.2578V34H89.3789V31.2578H97.9688ZM90.5156 16.9375V34H87V16.9375H90.5156ZM105.609 34.2344C104.625 34.2344 103.742 34.0781 102.961 33.7656C102.18 33.4453 101.516 33.0039 100.969 32.4414C100.43 31.8789 100.016 31.2266 99.7266 30.4844C99.4375 29.7344 99.293 28.9375 99.293 28.0938V27.625C99.293 26.6641 99.4297 25.7852 99.7031 24.9883C99.9766 24.1914 100.367 23.5 100.875 22.9141C101.391 22.3281 102.016 21.8789 102.75 21.5664C103.484 21.2461 104.312 21.0859 105.234 21.0859C106.133 21.0859 106.93 21.2344 107.625 21.5312C108.32 21.8281 108.902 22.25 109.371 22.7969C109.848 23.3438 110.207 24 110.449 24.7656C110.691 25.5234 110.812 26.3672 110.812 27.2969V28.7031H100.734V26.4531H107.496V26.1953C107.496 25.7266 107.41 25.3086 107.238 24.9414C107.074 24.5664 106.824 24.2695 106.488 24.0508C106.152 23.832 105.723 23.7227 105.199 23.7227C104.754 23.7227 104.371 23.8203 104.051 24.0156C103.73 24.2109 103.469 24.4844 103.266 24.8359C103.07 25.1875 102.922 25.6016 102.82 26.0781C102.727 26.5469 102.68 27.0625 102.68 27.625V28.0938C102.68 28.6016 102.75 29.0703 102.891 29.5C103.039 29.9297 103.246 30.3008 103.512 30.6133C103.785 30.9258 104.113 31.168 104.496 31.3398C104.887 31.5117 105.328 31.5977 105.82 31.5977C106.43 31.5977 106.996 31.4805 107.52 31.2461C108.051 31.0039 108.508 30.6406 108.891 30.1562L110.531 31.9375C110.266 32.3203 109.902 32.6875 109.441 33.0391C108.988 33.3906 108.441 33.6797 107.801 33.9062C107.16 34.125 106.43 34.2344 105.609 34.2344ZM119.578 31.1406V25.4922C119.578 25.0859 119.512 24.7383 119.379 24.4492C119.246 24.1523 119.039 23.9219 118.758 23.7578C118.484 23.5938 118.129 23.5117 117.691 23.5117C117.316 23.5117 116.992 23.5781 116.719 23.7109C116.445 23.8359 116.234 24.0195 116.086 24.2617C115.938 24.4961 115.863 24.7734 115.863 25.0938H112.488C112.488 24.5547 112.613 24.043 112.863 23.5586C113.113 23.0742 113.477 22.6484 113.953 22.2812C114.43 21.9062 114.996 21.6133 115.652 21.4023C116.316 21.1914 117.059 21.0859 117.879 21.0859C118.863 21.0859 119.738 21.25 120.504 21.5781C121.27 21.9062 121.871 22.3984 122.309 23.0547C122.754 23.7109 122.977 24.5312 122.977 25.5156V30.9414C122.977 31.6367 123.02 32.207 123.105 32.6523C123.191 33.0898 123.316 33.4727 123.48 33.8008V34H120.07C119.906 33.6562 119.781 33.2266 119.695 32.7109C119.617 32.1875 119.578 31.6641 119.578 31.1406ZM120.023 26.2773L120.047 28.1875H118.16C117.715 28.1875 117.328 28.2383 117 28.3398C116.672 28.4414 116.402 28.5859 116.191 28.7734C115.98 28.9531 115.824 29.1641 115.723 29.4062C115.629 29.6484 115.582 29.9141 115.582 30.2031C115.582 30.4922 115.648 30.7539 115.781 30.9883C115.914 31.2148 116.105 31.3945 116.355 31.5273C116.605 31.6523 116.898 31.7148 117.234 31.7148C117.742 31.7148 118.184 31.6133 118.559 31.4102C118.934 31.207 119.223 30.957 119.426 30.6602C119.637 30.3633 119.746 30.082 119.754 29.8164L120.645 31.2461C120.52 31.5664 120.348 31.8984 120.129 32.2422C119.918 32.5859 119.648 32.9102 119.32 33.2148C118.992 33.5117 118.598 33.7578 118.137 33.9531C117.676 34.1406 117.129 34.2344 116.496 34.2344C115.691 34.2344 114.961 34.0742 114.305 33.7539C113.656 33.4258 113.141 32.9766 112.758 32.4062C112.383 31.8281 112.195 31.1719 112.195 30.4375C112.195 29.7734 112.32 29.1836 112.57 28.668C112.82 28.1523 113.188 27.7188 113.672 27.3672C114.164 27.0078 114.777 26.7383 115.512 26.5586C116.246 26.3711 117.098 26.2773 118.066 26.2773H120.023ZM128.953 24.0859V34H125.578V21.3203H128.754L128.953 24.0859ZM132.773 21.2383L132.715 24.3672C132.551 24.3438 132.352 24.3242 132.117 24.3086C131.891 24.2852 131.684 24.2734 131.496 24.2734C131.02 24.2734 130.605 24.3359 130.254 24.4609C129.91 24.5781 129.621 24.7539 129.387 24.9883C129.16 25.2227 128.988 25.5078 128.871 25.8438C128.762 26.1797 128.699 26.5625 128.684 26.9922L128.004 26.7812C128.004 25.9609 128.086 25.207 128.25 24.5195C128.414 23.8242 128.652 23.2188 128.965 22.7031C129.285 22.1875 129.676 21.7891 130.137 21.5078C130.598 21.2266 131.125 21.0859 131.719 21.0859C131.906 21.0859 132.098 21.1016 132.293 21.1328C132.488 21.1562 132.648 21.1914 132.773 21.2383ZM137.672 24.0273V34H134.297V21.3203H137.461L137.672 24.0273ZM137.18 27.2148H136.266C136.266 26.2773 136.387 25.4336 136.629 24.6836C136.871 23.9258 137.211 23.2812 137.648 22.75C138.086 22.2109 138.605 21.8008 139.207 21.5195C139.816 21.2305 140.496 21.0859 141.246 21.0859C141.84 21.0859 142.383 21.1719 142.875 21.3438C143.367 21.5156 143.789 21.7891 144.141 22.1641C144.5 22.5391 144.773 23.0352 144.961 23.6523C145.156 24.2695 145.254 25.0234 145.254 25.9141V34H141.855V25.9023C141.855 25.3398 141.777 24.9023 141.621 24.5898C141.465 24.2773 141.234 24.0586 140.93 23.9336C140.633 23.8008 140.266 23.7344 139.828 23.7344C139.375 23.7344 138.98 23.8242 138.645 24.0039C138.316 24.1836 138.043 24.4336 137.824 24.7539C137.613 25.0664 137.453 25.4336 137.344 25.8555C137.234 26.2773 137.18 26.7305 137.18 27.2148ZM151.383 21.3203V34H147.996V21.3203H151.383ZM147.785 18.0156C147.785 17.5234 147.957 17.1172 148.301 16.7969C148.645 16.4766 149.105 16.3164 149.684 16.3164C150.254 16.3164 150.711 16.4766 151.055 16.7969C151.406 17.1172 151.582 17.5234 151.582 18.0156C151.582 18.5078 151.406 18.9141 151.055 19.2344C150.711 19.5547 150.254 19.7148 149.684 19.7148C149.105 19.7148 148.645 19.5547 148.301 19.2344C147.957 18.9141 147.785 18.5078 147.785 18.0156ZM157.477 24.0273V34H154.102V21.3203H157.266L157.477 24.0273ZM156.984 27.2148H156.07C156.07 26.2773 156.191 25.4336 156.434 24.6836C156.676 23.9258 157.016 23.2812 157.453 22.75C157.891 22.2109 158.41 21.8008 159.012 21.5195C159.621 21.2305 160.301 21.0859 161.051 21.0859C161.645 21.0859 162.188 21.1719 162.68 21.3438C163.172 21.5156 163.594 21.7891 163.945 22.1641C164.305 22.5391 164.578 23.0352 164.766 23.6523C164.961 24.2695 165.059 25.0234 165.059 25.9141V34H161.66V25.9023C161.66 25.3398 161.582 24.9023 161.426 24.5898C161.27 24.2773 161.039 24.0586 160.734 23.9336C160.438 23.8008 160.07 23.7344 159.633 23.7344C159.18 23.7344 158.785 23.8242 158.449 24.0039C158.121 24.1836 157.848 24.4336 157.629 24.7539C157.418 25.0664 157.258 25.4336 157.148 25.8555C157.039 26.2773 156.984 26.7305 156.984 27.2148ZM175.652 21.3203H178.711V33.5781C178.711 34.7344 178.453 35.7148 177.938 36.5195C177.43 37.332 176.719 37.9453 175.805 38.3594C174.891 38.7812 173.828 38.9922 172.617 38.9922C172.086 38.9922 171.523 38.9219 170.93 38.7812C170.344 38.6406 169.781 38.4219 169.242 38.125C168.711 37.8281 168.266 37.4531 167.906 37L169.395 35.0078C169.785 35.4609 170.238 35.8125 170.754 36.0625C171.27 36.3203 171.84 36.4492 172.465 36.4492C173.074 36.4492 173.59 36.3359 174.012 36.1094C174.434 35.8906 174.758 35.5664 174.984 35.1367C175.211 34.7148 175.324 34.2031 175.324 33.6016V24.25L175.652 21.3203ZM167.121 27.8125V27.5664C167.121 26.5977 167.238 25.7188 167.473 24.9297C167.715 24.1328 168.055 23.4492 168.492 22.8789C168.938 22.3086 169.477 21.8672 170.109 21.5547C170.742 21.2422 171.457 21.0859 172.254 21.0859C173.098 21.0859 173.805 21.2422 174.375 21.5547C174.945 21.8672 175.414 22.3125 175.781 22.8906C176.148 23.4609 176.434 24.1367 176.637 24.918C176.848 25.6914 177.012 26.5391 177.129 27.4609V28C177.012 28.8828 176.836 29.7031 176.602 30.4609C176.367 31.2188 176.059 31.8828 175.676 32.4531C175.293 33.0156 174.816 33.4531 174.246 33.7656C173.684 34.0781 173.012 34.2344 172.23 34.2344C171.449 34.2344 170.742 34.0742 170.109 33.7539C169.484 33.4336 168.949 32.9844 168.504 32.4062C168.059 31.8281 167.715 31.1484 167.473 30.3672C167.238 29.5859 167.121 28.7344 167.121 27.8125ZM170.496 27.5664V27.8125C170.496 28.3359 170.547 28.8242 170.648 29.2773C170.75 29.7305 170.906 30.1328 171.117 30.4844C171.336 30.8281 171.605 31.0977 171.926 31.293C172.254 31.4805 172.641 31.5742 173.086 31.5742C173.703 31.5742 174.207 31.4453 174.598 31.1875C174.988 30.9219 175.281 30.5586 175.477 30.0977C175.672 29.6367 175.785 29.1055 175.816 28.5039V26.9688C175.801 26.4766 175.734 26.0352 175.617 25.6445C175.5 25.2461 175.336 24.9062 175.125 24.625C174.914 24.3438 174.641 24.125 174.305 23.9688C173.969 23.8125 173.57 23.7344 173.109 23.7344C172.664 23.7344 172.277 23.8359 171.949 24.0391C171.629 24.2344 171.359 24.5039 171.141 24.8477C170.93 25.1914 170.77 25.5977 170.66 26.0664C170.551 26.5273 170.496 27.0273 170.496 27.5664Z" fill="#1D1D1D"/>
<path d="M29.3433 10.65L46.1416 0.780273V9.36441L29.3433 10.65Z" fill="#B8E8F2"/>
<path d="M29.3433 10.6501L49.7233 3.09448V9.2157L29.3433 10.6501Z" fill="#88CFE5"/>
<path d="M29.3432 10.6501L7.51074 0V8.34957L29.3432 10.6501Z" fill="#B8E8F2"/>
<path d="M29.3432 10.65L2.90967 1.92603V7.81268L29.3432 10.65Z" fill="#88CFE5"/>
<path d="M29.3791 51.8476L0.0315758 46.1685L0 4.96191L29.3475 10.6456L29.3791 51.8476Z" fill="#472758"/>
<path d="M58.7946 34.0297C58.7946 41.3192 53.0748 47.1968 45.9973 48.5772L29.3478 51.8159L29.3433 10.65L44.8606 7.63224C51.7667 6.28801 57.3782 9.84256 57.3782 16.9607C57.3782 20.3709 56.0745 23.33 53.9274 25.6891C56.8684 27.0514 58.79 29.8527 58.7946 34.0297ZM38.4055 17.7095V24.999L44.8606 23.7405C46.8995 23.3435 48.3159 21.5392 48.3159 19.4236C48.3159 17.308 46.9581 16.045 44.8606 16.4509L38.4055 17.7095ZM49.7323 35.0852C49.7323 32.7937 48.2617 31.4315 45.9928 31.8735L38.4055 33.3486V41.229L45.9928 39.754C48.2617 39.3164 49.7323 37.3813 49.7323 35.0852Z" fill="#4D2C5E"/>
</svg>